<?xml version="1.0"?>
<svg width="200" height="200" xmlns="http://www.w3.org/2000/svg" xmlns:svg="http://www.w3.org/2000/svg">
 <title>GitHub</title>Created with Sketch (http://www.bohemiancoding.com/sketch)
 <g>
  <title>Layer 1</title>
  <g id="Page-1" fill="none" fill-rule="evenodd">
   <path d="m0,100c0,55.2286 44.7714,100 100,100c55.2286,0 100,-44.7714 100,-100c0,-55.2286 -44.7714,-100 -100,-100c-55.2286,0 -100,44.7714 -100,100zm150.6562,-74.6c2.1136,3.226 3.3284,12.5372 2.5,19.1938l-0.5312,4.2624l2.5812,3.1312c5.1312,6.2208 7.9488,13.7424 8.5124,22.7376c0.3154,5.0334 -0.3934,16.8496 -1.25,20.8438c-0.2808,1.31 -0.4262,2.4676 -0.3188,2.575c0.1074,0.1074 4.689,-0.0222 10.1812,-0.2876c5.8556,-0.2828 10.5132,-0.3666 11.85,-0.075c1.3368,0.2916 -1.298,0.481 -9.3188,0.6688c-6.1948,0.145 -11.7502,0.4854 -12.45,0.7624c-0.8482,0.336 -1.3928,1.002 -1.6624,2.0312c-0.4796,1.8308 -1.7068,1.5882 11.3188,2.225c5.3822,0.263 10.5154,0.6654 11.4124,0.8938c2.1768,0.5542 0.9666,0.5786 -3.025,0.0562c-1.7942,-0.2348 -7.1458,-0.4624 -11.8876,-0.5l-8.6188,-0.0624l-1.5876,2.7188c-2.3478,4.0214 -8.4402,9.8694 -12.4438,11.9438c-4.8446,2.5102 -12.3122,4.8626 -18.8812,5.95c-3.1708,0.5248 -6.0544,1.0552 -6.4062,1.175c-0.4406,0.15 0.0206,0.9138 1.475,2.4688c2.3958,2.5614 3.616,4.7544 4.7188,8.45c0.6036,2.0222 0.8318,5.6218 1.0624,17.0688c0.2822,14.005 0.2584,14.5164 -0.6,14.775c-2.8052,0.8452 -7.941,2.175 -8.4062,2.175c-0.3964,0 -0.5934,-3.4994 -0.7312,-12.9312c-0.197,-13.468 -0.4474,-15.2182 -2.4,-16.8376c-0.715,-0.593 -0.7688,0.5024 -0.7688,14.9938l0,15.6312l-3.1438,0.3438c-1.73,0.1902 -3.9874,0.3652 -5.0124,0.3876l-1.8624,0.0438l-0.2938,-8.3876c-0.1602,-4.6132 -0.318,-12.1132 -0.35,-16.6624l-0.0562,-8.2688l-1.3938,0l-1.4,0l0,16.775l0,16.775l-3.8438,-0.075c-2.1144,-0.041 -4.5294,-0.1592 -5.3624,-0.2624l-1.5124,-0.1876l0,-16.1062c0,-14.5636 -0.0712,-16.0414 -0.7312,-15.4938c-2.1558,1.7892 -2.2882,2.7466 -2.4438,17.3438l-0.15,13.8812l-1.7188,-0.3124c-0.944,-0.1728 -3.0778,-0.6566 -4.7438,-1.0688l-3.025,-0.75l-0.1312,-9.0124l-0.125,-9.0124l-2.3062,0.3188c-4.2436,0.5836 -11.7596,0.3766 -14.35,-0.3938c-6.1992,-1.8434 -9.9368,-5.2204 -13.1938,-11.9312c-2.7396,-5.6448 -5.2078,-8.967 -8.8688,-11.925c-3.8274,-3.0924 -4.539,-4.1598 -3.2376,-4.8562c0.499,-0.267 2.025,-0.4788 3.3876,-0.475c2.3024,0.0064 6.508,1.9422 9.0998,4.3312c1.1582,1.0676 3.0364,3.2418 4.175,4.8376c4.7848,6.7052 9.8448,9.3976 16.6376,8.8562c3.9386,-0.3138 8.6686,-1.6872 9.175,-2.6624c0.1982,-0.382 0.8308,-1.9264 1.4062,-3.4312c0.6704,-1.7536 1.9542,-3.7122 3.5688,-5.4562c2.3784,-2.569 2.453,-2.7344 1.4312,-2.9376c-0.5954,-0.1184 -3.5932,-0.6594 -6.6688,-1.2062c-11.4092,-2.0284 -19.8288,-5.8234 -26.1438,-11.7876c-2.1102,-1.993 -4.5212,-4.6954 -5.3624,-6.0062l-1.5312,-2.3876l-10.0438,0.2876c-5.5832,0.1584 -11.6938,0.5908 -13.7562,0.975c-3.3692,0.6276 -4.507,0.6444 -3.9188,0.0562c0.3666,-0.3666 13.8576,-1.6344 20.5624,-1.9312c3.5242,-0.156 6.4062,-0.4822 6.4062,-0.725c0,-0.2428 -0.311,-1.0472 -0.6938,-1.7876c-0.9448,-1.8268 -2.2266,-1.9624 -16.2,-1.7812c-6.3436,0.0824 -11.5314,0.0058 -11.5312,-0.1624c0.001,-0.6186 9.3268,-0.983 17.8688,-0.7c8.205,0.2718 8.7672,0.2408 8.475,-0.5124c-0.172,-0.4436 -0.7682,-2.5902 -1.325,-4.7688c-0.8876,-3.4736 -1.0162,-5.2218 -1.0188,-14.2124c-0.0028,-9.5676 0.074,-10.4682 1.1062,-13.5124c1.4484,-4.2708 3.95,-9.0602 6.3688,-12.175l1.9438,-2.5l-0.9124,-3.85c-1.1418,-4.7944 -0.9382,-12.3448 0.475,-17.4812c1.3158,-4.7822 1.501,-4.9434 5.45,-4.6376c5.076,0.3932 11.5208,2.9634 19.5876,7.8062l3.7312,2.2376l3.725,-0.9c11.2764,-2.7258 27.5208,-2.983 39.55,-0.625l3.6688,0.7188l3.8438,-2.3562c5.2664,-3.2296 10.414,-5.504 14.8812,-6.575c2.2464,-0.5396 3.7872,-0.8344 4.8878,-0.876c1.415,-0.0536 2.1014,0.3134 2.625,1.1124zm-105.84486,100.1c-0.98341,0 -1.31134,0.18646 -1.31134,0.7569c0,1.30205 1.21608,1.74711 2.55323,0.935c1.00105,-0.60802 0.2037,-1.6919 -1.24189,-1.6919l0,0l0,0zm-3.48113,-1.9c-0.88508,0 -1.18021,0.18647 -1.18021,0.7569c0,1.30205 1.09447,1.74711 2.29791,0.935c0.90094,-0.60802 0.18333,-1.6919 -1.1177,-1.6919l0,0l0,0zm6.96979,5.1376c-0.9802,0.0118 -1.5318,0.6344 -1.1876,1.5312c0.3926,1.023 2.7998,0.7582 3.0062,-0.3312c0.102,-0.538 -0.2528,-0.8982 -1.0812,-1.1062c-0.2666,-0.0672 -0.5112,-0.0966 -0.7374,-0.0938l0,0l0,0zm2.8688,4.0936c-1.6696,0 -2.3212,0.8684 -1.2438,1.6562c1.061,0.7758 2.6124,0.3154 2.6124,-0.775c0.0002,-0.6604 -0.3372,-0.8812 -1.3686,-0.8812l0,0l0,0zm2.7812,3.3438c-0.0686,0 -0.1382,0.0028 -0.2062,0.0124c-0.5986,0.0856 -1.0272,0.5422 -1.1188,1.1876c-0.1262,0.888 0.0618,1.05 1.25,1.05c0.7716,0 1.541,-0.22 1.7062,-0.4876c0.4348,-0.7034 -0.6034,-1.7608 -1.6312,-1.7624l0,0l0,0zm3.7624,3.2312c-1.0496,0.0236 -1.6266,0.6812 -1.2812,1.5812c0.4398,1.1458 2.8624,0.755 2.8624,-0.4624c0,-0.6254 -0.3604,-0.9828 -1.1,-1.0876c-0.1678,-0.0236 -0.3312,-0.0344 -0.4812,-0.0312l0,0l0,0zm16.7252,0.8814c-0.4498,0 -1.0746,0.3156 -1.3938,0.7c-0.7124,0.8582 0.1094,2.1 1.3938,2.1c0.4498,0 1.0808,-0.3156 1.4,-0.7c0.7122,-0.8582 -0.1158,-2.1 -1.4,-2.1l0,0l0,0zm-5.6752,0.9562c-0.9732,0.068 -1.5862,0.9208 -1.1312,2.1062c0.3624,0.944 2.1242,0.6966 2.8,-0.3938c0.3964,-0.64 0.3524,-0.9308 -0.1876,-1.275c-0.5256,-0.335 -1.0388,-0.4682 -1.4812,-0.4374l0,0l0,0zm-5.4874,0.075c-0.6342,0.026 -1.2246,0.388 -1.3438,1.0124c-0.2896,1.5184 1.6896,2.2352 2.725,0.9876c0.4636,-0.5586 0.4598,-0.8422 -0.0188,-1.4188c-0.3448,-0.4156 -0.869,-0.6014 -1.3624,-0.5812l0,0l0,0z" id="GitHub" fill="#c4c4c4"/>
  </g>
 </g></svg>