<?xml version="1.0"?>
<svg width="200" height="200" xmlns="http://www.w3.org/2000/svg" xmlns:svg="http://www.w3.org/2000/svg">
 <title>LinkedIn</title>Created with Sketch (http://www.bohemiancoding.com/sketch)
 <g>
  <title>Layer 1</title>
  <g id="Page-1" fill="none" fill-rule="evenodd">
   <path d="m100,0c-55.228474,0 -100,44.771526 -100,100c0,55.228474 44.771526,100 100,100c55.228474,0 100,-44.771526 100,-100c0,-55.228474 -44.771526,-100 -100,-100zm-17.619356,80.722181l23.534323,0l0,10.780534l0.334619,0c3.275739,-6.203842 11.279782,-12.748428 23.214253,-12.748428c24.823025,0 29.408141,16.343471 29.408141,37.603614l0,43.293659l-24.502956,0l0,-38.381582c0,-9.158746 -0.179943,-20.93165 -12.751491,-20.93165c-12.765274,0 -14.712493,9.971937 -14.712493,20.267007l0,39.046225l-24.524396,0l0,-78.929379l0,0zm-27.655413,-39.239952c7.842477,0 14.217074,6.374597 14.217074,14.220137c0,7.853963 -6.374597,14.22856 -14.217074,14.22856c-7.863152,0 -14.219372,-6.374597 -14.219372,-14.22856c0,-7.84554 6.35622,-14.220137 14.219372,-14.220137zm-12.272152,39.239952l24.542007,0l0,78.929379l-24.542007,0l0,-78.929379l0,0z" id="LinkedIn" fill="#c4c4c4"/>
  </g>
 </g></svg>