<?xml version="1.0"?>
<svg width="200" height="200" xmlns="http://www.w3.org/2000/svg" xmlns:svg="http://www.w3.org/2000/svg">
 <title>WordPress</title>Created with Sketch (http://www.bohemiancoding.com/sketch)
 <g>
  <title>Layer 1</title>
  <g id="Page-1" fill="none" fill-rule="evenodd">
   <path d="m149.868313,160.544386l-36.102293,-107.385068c6.014109,-0.316285 11.433275,-0.948854 11.433275,-0.948854c5.382716,-0.637272 4.747795,-8.547913 -0.637273,-8.232804c0,0 -16.18107,1.269841 -26.62669,1.269841c-9.815403,0 -26.30923,-1.269841 -26.30923,-1.269841c-5.387419,-0.315109 -6.018812,7.914168 -0.633745,8.232804c0,0 5.095826,0.632569 10.478543,0.948854l15.56261,42.644327l-21.864786,65.564962l-36.376249,-108.209289c6.018812,-0.316285 11.432099,-0.948854 11.432099,-0.948854c5.379189,-0.637272 4.744268,-8.547913 -0.638448,-8.232804c0,0 -16.177543,1.269841 -26.624339,1.269841c-1.874192,0 -4.08348,-0.045855 -6.429159,-0.121105c17.862434,-27.118166 48.564374,-45.026455 83.466196,-45.026455c26.005879,0 49.686067,9.943563 67.457966,26.228101c-0.430335,-0.025867 -0.850088,-0.079953 -1.293357,-0.079953c-9.813051,0 -16.776014,8.547913 -16.776014,17.729571c0,8.232804 4.750147,15.198119 9.813051,23.429747c3.798942,6.653733 8.236332,15.200471 8.236332,27.550853c0,8.549089 -3.288654,18.471487 -7.601411,32.293945l-9.967078,33.292181zm-93.462669,29.358024c-33.327455,-16.190476 -56.303351,-50.364491 -56.303351,-89.905937c0,-14.483246 3.106408,-28.231629 8.650206,-40.654909l47.653145,130.560846zm43.59318,9.998825c-9.805996,0 -19.269841,-1.437978 -28.222222,-4.070547l29.976484,-87.095826l30.704292,84.125808c0.202234,0.493827 0.450323,0.948854 0.714874,1.376837c-10.383304,3.655497 -21.540271,5.663728 -33.173428,5.663728zm87.6602,-147.829513c7.797766,14.228102 12.235156,30.556144 12.235156,47.924751c0,36.854791 -19.972957,69.031158 -49.671958,86.346854l30.511464,-88.218694c5.699001,-14.251617 7.596708,-25.647267 7.596708,-35.78013c0,-3.677836 -0.242211,-7.091123 -0.67137,-10.272781z" id="WordPress" fill="#c4c4c4"/>
  </g>
 </g></svg>